<svg xmlns="http://www.w3.org/2000/svg" viewBox="0 0 64 64" width="64" height="64">
  <circle cx="32" cy="32" r="30" fill="#4F46E5" />
  <path d="M32 2a30 30 0 0 0-30 30c0 16.57 13.43 30 30 30s30-13.43 30-30A30 30 0 0 0 32 2zm0 56C17.66 58 6 46.34 6 32S17.66 6 32 6s26 11.66 26 26-11.66 26-26 26z" fill="#10B981"/>
  <path d="M48.5 18.5c-2.5-3-6.5-4.5-10.5-3.5-3 1-5 4-4 7 .5 1.5 2 2.5 3.5 2.5 1 0 2-.5 2.5-1.5.5-1 0-2.5-1-3-1.5-.5-2-1.5-1.5-3 .5-1.5 2-2 3.5-1.5 2 .5 3.5 2 3.5 4 0 1.5 1 2.5 2.5 2.5s2.5-1 2.5-2.5c0-2-1-3.5-3-4zM18 36c-1.5 0-3 1-3.5 2.5-.5 1.5.5 3 2 3.5 1.5.5 3-.5 3.5-2 .5-1.5-.5-3-2-3.5-1.5-.5-2.5.5-2.5 2s1 2.5 2.5 2.5c1.5 0 2.5-1 2.5-2.5s-1-2.5-2.5-2.5z" fill="#A7F3D0"/>
  <path d="M38 42c-2 0-3.5 1.5-3.5 3.5S36 49 38 49s3.5-1.5 3.5-3.5S40 42 38 42zm-14-8c-2 0-3.5 1.5-3.5 3.5S22 41 24 41s3.5-1.5 3.5-3.5S26 34 24 34z" fill="#34D399"/>
</svg>
